<svg xmlns="http://www.w3.org/2000/svg" width="512" height="512" viewBox="0 0 512 512">
  <rect width="512" height="512" fill="#4F46E5" rx="128" />
  <g transform="translate(128, 106)" fill="#ffffff">
    <path d="M256 0H64C28.7 0 0 28.7 0 64v64c0 35.3 28.7 64 64 64h192c35.3 0 64-28.7 64-64V64c0-35.3-28.7-64-64-64zM64 48h192c8.8 0 16 7.2 16 16v64c0 8.8-7.2 16-16 16H64c-8.8 0-16-7.2-16-16V64c0-8.8 7.2-16 16-16z"/>
    <path d="M256 256H64c-35.3 0-64 28.7-64 64v64c0 35.3 28.7 64 64 64h192c35.3 0 64-28.7 64-64v-64c0-35.3-28.7-64-64-64zm0 128c0 8.8-7.2 16-16 16H64c-8.8 0-16-7.2-16-16v-64c0-8.8 7.2-16 16-16h176c8.8 0 16 7.2 16 16v64z" transform="translate(0, -64)"/>
  </g>
</svg> 